# xmcd CD database file generated by Grip 3.2.0
# 
# Track frame offsets:
#       150
#       15039
#       26216
#       39572
#       53323
#       66913
#       78556
#       91692
#       103477
#       133493
#       147352
#       160692
#       174151
#       187521
#       198846
#       211790
#       226369
# 
# Disc length: 3177 seconds
# 
# Revision: 0
# Processed by: cddbd v1.5.2PL0 Copyright (c) Steve Scherf et al.
# Submitted via: Grip 3.2.0
# 
DISCID=d20c6711
DTITLE=Various Artist - The Early Blues Roots of Fleetwood Mac, Under the Influence 
DTITLE=Vol. 2
DYEAR=2000
DGENRE=Blues
TTITLE0=Robert Nighthawk - Every Day And Night
TTITLE1=Leroy Foster and Muddy Waters - Rollin' And Tumblin' Pt 1
TTITLE2=Robert Johnson - Dust My Broom
TTITLE3=Son House - Preachin' Blues
TTITLE4=Robert Johnson - Sweet Home Chicago
TTITLE5=Memphis Minnie - Please Set A Date
TTITLE6=Leroy Carr - Mean Mistreatin' Mama
TTITLE7=Robert Johnson - Hell Hound On My Trail
TTITLE8=Son House - Walkin' Blues
TTITLE9=Sonny Boy Williamson - Baby I've Been Your Slave
TTITLE10=Leroy Carr - When The Sun Goes Down
TTITLE11=T-Bone Walker - T-Bone Shuffle
TTITLE12=Sonny Boy Williamson - Sugar Mama
TTITLE13=Lowell Fulson - Everyday I Have The Blues
TTITLE14=Joe McCoy - Strangers Blues
TTITLE15=Blind Willie McTell - Travelin' Blues
TTITLE16=Lightnin' Hopkins - Death Bells
EXTD=
EXTT0=
EXTT1=
EXTT2=
EXTT3=
EXTT4=
EXTT5=
EXTT6=
EXTT7=
EXTT8=
EXTT9=
EXTT10=
EXTT11=
EXTT12=
EXTT13=
EXTT14=
EXTT15=
EXTT16=
PLAYORDER=
